G04 (created by PCBNEW (2011-nov-30)-testing) date Sun 23 Sep 2012 15:15:45 EDT*
%MOIN*%
G04 Gerber Fmt 3.4, Leading zero omitted, Abs format*
%FSLAX34Y34*%
G01*
G70*
G90*
G04 APERTURE LIST*
%ADD10C,0.006*%
%ADD11C,0.0039*%
%ADD12C,0.0079*%
%ADD13C,0.005*%
%ADD14C,0.012*%
%ADD15C,0.008*%
%ADD16C,0.0031*%
%ADD17C,0.003*%
G04 APERTURE END LIST*
G54D10*
G54D11*
X53828Y-37772D02*
G75*
G03X53828Y-37772I-395J0D01*
G74*
G01*
G54D12*
X54457Y-37260D02*
X53945Y-36748D01*
X52409Y-37260D02*
X52921Y-36748D01*
X52921Y-38796D02*
X52409Y-38323D01*
X54457Y-37260D02*
X54457Y-38284D01*
X54457Y-38284D02*
X53945Y-38796D01*
X53945Y-36748D02*
X52921Y-36748D01*
X52409Y-37260D02*
X52409Y-38284D01*
X52921Y-38796D02*
X53945Y-38796D01*
G54D10*
X58080Y-42890D02*
X57630Y-42890D01*
X58080Y-40710D02*
X57640Y-40710D01*
X58080Y-42890D02*
X58080Y-40710D01*
X57200Y-43360D02*
X57200Y-43790D01*
X54990Y-43370D02*
X54990Y-43790D01*
X54980Y-43790D02*
X57200Y-43800D01*
X55000Y-39820D02*
X57170Y-39810D01*
X54570Y-40510D02*
X54570Y-43340D01*
X57180Y-39820D02*
X57180Y-40230D01*
X54820Y-40270D02*
X57600Y-40270D01*
X57620Y-43350D02*
X57620Y-40310D01*
X54570Y-43350D02*
X57570Y-43350D01*
X54120Y-40680D02*
X54120Y-42900D01*
X54120Y-42900D02*
X54570Y-42900D01*
X54574Y-40500D02*
X54804Y-40270D01*
X54122Y-40680D02*
X54574Y-40680D01*
X55000Y-40270D02*
X55000Y-39818D01*
X55170Y-40674D02*
G75*
G03X55170Y-40674I-188J0D01*
G74*
G01*
G54D13*
X52000Y-42400D02*
G75*
G03X52000Y-42400I-50J0D01*
G74*
G01*
X52400Y-42400D02*
X52000Y-42400D01*
X52000Y-42400D02*
X52000Y-41800D01*
X52000Y-41800D02*
X52400Y-41800D01*
X52800Y-41800D02*
X53200Y-41800D01*
X53200Y-41800D02*
X53200Y-42400D01*
X53200Y-42400D02*
X52800Y-42400D01*
X56100Y-38100D02*
G75*
G03X56100Y-38100I-50J0D01*
G74*
G01*
X56500Y-38100D02*
X56100Y-38100D01*
X56100Y-38100D02*
X56100Y-37500D01*
X56100Y-37500D02*
X56500Y-37500D01*
X56900Y-37500D02*
X57300Y-37500D01*
X57300Y-37500D02*
X57300Y-38100D01*
X57300Y-38100D02*
X56900Y-38100D01*
X59750Y-43150D02*
G75*
G03X59750Y-43150I-50J0D01*
G74*
G01*
X59700Y-42700D02*
X59700Y-43100D01*
X59700Y-43100D02*
X59100Y-43100D01*
X59100Y-43100D02*
X59100Y-42700D01*
X59100Y-42300D02*
X59100Y-41900D01*
X59100Y-41900D02*
X59700Y-41900D01*
X59700Y-41900D02*
X59700Y-42300D01*
G54D14*
X60209Y-45480D02*
X60209Y-41480D01*
X60209Y-41480D02*
X62209Y-41480D01*
X62209Y-41480D02*
X62209Y-45480D01*
X62209Y-45480D02*
X60209Y-45480D01*
G54D15*
X59217Y-36378D02*
X62217Y-36378D01*
X62217Y-38378D02*
X59217Y-38378D01*
X59217Y-38378D02*
X59217Y-36378D01*
X62217Y-36378D02*
X62217Y-38378D01*
G54D10*
X49800Y-42600D02*
X50800Y-42600D01*
X50800Y-42600D02*
X50800Y-44600D01*
X50800Y-44600D02*
X49800Y-44600D01*
X49800Y-44600D02*
X49800Y-42600D01*
X53100Y-44500D02*
X53100Y-45500D01*
X53100Y-45500D02*
X51100Y-45500D01*
X51100Y-45500D02*
X51100Y-44500D01*
X51100Y-44500D02*
X53100Y-44500D01*
G54D13*
X61650Y-41200D02*
X60950Y-41200D01*
X60950Y-41200D02*
X60950Y-40000D01*
X60950Y-40000D02*
X61650Y-40000D01*
X61650Y-40000D02*
X61650Y-41200D01*
X56100Y-37200D02*
G75*
G03X56100Y-37200I-50J0D01*
G74*
G01*
X56500Y-37200D02*
X56100Y-37200D01*
X56100Y-37200D02*
X56100Y-36600D01*
X56100Y-36600D02*
X56500Y-36600D01*
X56900Y-36600D02*
X57300Y-36600D01*
X57300Y-36600D02*
X57300Y-37200D01*
X57300Y-37200D02*
X56900Y-37200D01*
X53350Y-44150D02*
G75*
G03X53350Y-44150I-50J0D01*
G74*
G01*
X53300Y-43700D02*
X53300Y-44100D01*
X53300Y-44100D02*
X52700Y-44100D01*
X52700Y-44100D02*
X52700Y-43700D01*
X52700Y-43300D02*
X52700Y-42900D01*
X52700Y-42900D02*
X53300Y-42900D01*
X53300Y-42900D02*
X53300Y-43300D01*
X59150Y-43850D02*
G75*
G03X59150Y-43850I-50J0D01*
G74*
G01*
X59100Y-44300D02*
X59100Y-43900D01*
X59100Y-43900D02*
X59700Y-43900D01*
X59700Y-43900D02*
X59700Y-44300D01*
X59700Y-44700D02*
X59700Y-45100D01*
X59700Y-45100D02*
X59100Y-45100D01*
X59100Y-45100D02*
X59100Y-44700D01*
X54800Y-44700D02*
G75*
G03X54800Y-44700I-50J0D01*
G74*
G01*
X54300Y-44700D02*
X54700Y-44700D01*
X54700Y-44700D02*
X54700Y-45300D01*
X54700Y-45300D02*
X54300Y-45300D01*
X53900Y-45300D02*
X53500Y-45300D01*
X53500Y-45300D02*
X53500Y-44700D01*
X53500Y-44700D02*
X53900Y-44700D01*
G54D10*
X49800Y-36700D02*
X50800Y-36700D01*
X50800Y-36700D02*
X50800Y-38700D01*
X50800Y-38700D02*
X49800Y-38700D01*
X49800Y-38700D02*
X49800Y-36700D01*
G54D16*
X51406Y-43500D02*
G75*
G03X51406Y-43500I-106J0D01*
G74*
G01*
X52200Y-43200D02*
X52200Y-43600D01*
X51175Y-43200D02*
X51175Y-43600D01*
X52200Y-43600D02*
X51175Y-43600D01*
X51175Y-43200D02*
X52200Y-43200D01*
G54D13*
X50303Y-39476D02*
X50303Y-38924D01*
X50146Y-39476D02*
X50854Y-39476D01*
X50854Y-39476D02*
X50854Y-38924D01*
X50854Y-38924D02*
X50146Y-38924D01*
X50146Y-38924D02*
X50146Y-39476D01*
X60700Y-39700D02*
G75*
G03X60700Y-39700I-50J0D01*
G74*
G01*
X61100Y-39700D02*
X60700Y-39700D01*
X60700Y-39700D02*
X60700Y-39100D01*
X60700Y-39100D02*
X61100Y-39100D01*
X61500Y-39100D02*
X61900Y-39100D01*
X61900Y-39100D02*
X61900Y-39700D01*
X61900Y-39700D02*
X61500Y-39700D01*
G54D15*
X55710Y-41502D02*
X55710Y-41002D01*
X56129Y-41455D02*
X56110Y-41479D01*
X56053Y-41502D01*
X56015Y-41502D01*
X55957Y-41479D01*
X55919Y-41431D01*
X55900Y-41383D01*
X55881Y-41288D01*
X55881Y-41217D01*
X55900Y-41121D01*
X55919Y-41074D01*
X55957Y-41026D01*
X56015Y-41002D01*
X56053Y-41002D01*
X56110Y-41026D01*
X56129Y-41050D01*
X56510Y-41502D02*
X56281Y-41502D01*
X56395Y-41502D02*
X56395Y-41002D01*
X56357Y-41074D01*
X56319Y-41121D01*
X56281Y-41145D01*
G54D13*
X52558Y-41651D02*
X52475Y-41532D01*
X52416Y-41651D02*
X52416Y-41401D01*
X52511Y-41401D01*
X52535Y-41413D01*
X52546Y-41425D01*
X52558Y-41449D01*
X52558Y-41485D01*
X52546Y-41508D01*
X52535Y-41520D01*
X52511Y-41532D01*
X52416Y-41532D01*
X52654Y-41425D02*
X52666Y-41413D01*
X52689Y-41401D01*
X52749Y-41401D01*
X52773Y-41413D01*
X52785Y-41425D01*
X52796Y-41449D01*
X52796Y-41473D01*
X52785Y-41508D01*
X52642Y-41651D01*
X52796Y-41651D01*
X57758Y-37901D02*
X57675Y-37782D01*
X57616Y-37901D02*
X57616Y-37651D01*
X57711Y-37651D01*
X57735Y-37663D01*
X57746Y-37675D01*
X57758Y-37699D01*
X57758Y-37735D01*
X57746Y-37758D01*
X57735Y-37770D01*
X57711Y-37782D01*
X57616Y-37782D01*
X57996Y-37901D02*
X57854Y-37901D01*
X57925Y-37901D02*
X57925Y-37651D01*
X57901Y-37687D01*
X57877Y-37711D01*
X57854Y-37723D01*
X58938Y-42540D02*
X58950Y-42552D01*
X58962Y-42587D01*
X58962Y-42611D01*
X58950Y-42647D01*
X58926Y-42671D01*
X58903Y-42682D01*
X58855Y-42694D01*
X58819Y-42694D01*
X58772Y-42682D01*
X58748Y-42671D01*
X58724Y-42647D01*
X58712Y-42611D01*
X58712Y-42587D01*
X58724Y-42552D01*
X58736Y-42540D01*
X58962Y-42302D02*
X58962Y-42444D01*
X58962Y-42373D02*
X58712Y-42373D01*
X58748Y-42397D01*
X58772Y-42421D01*
X58784Y-42444D01*
G54D15*
X59871Y-43775D02*
X59471Y-43775D01*
X59471Y-43622D01*
X59490Y-43584D01*
X59509Y-43565D01*
X59547Y-43546D01*
X59604Y-43546D01*
X59642Y-43565D01*
X59661Y-43584D01*
X59680Y-43622D01*
X59680Y-43775D01*
X59871Y-43165D02*
X59871Y-43394D01*
X59871Y-43280D02*
X59471Y-43280D01*
X59528Y-43318D01*
X59566Y-43356D01*
X59585Y-43394D01*
X59210Y-38862D02*
X59210Y-38462D01*
X59381Y-38843D02*
X59438Y-38862D01*
X59534Y-38862D01*
X59572Y-38843D01*
X59591Y-38824D01*
X59610Y-38786D01*
X59610Y-38748D01*
X59591Y-38710D01*
X59572Y-38690D01*
X59534Y-38671D01*
X59457Y-38652D01*
X59419Y-38633D01*
X59400Y-38614D01*
X59381Y-38576D01*
X59381Y-38538D01*
X59400Y-38500D01*
X59419Y-38481D01*
X59457Y-38462D01*
X59553Y-38462D01*
X59610Y-38481D01*
X59781Y-38862D02*
X59781Y-38462D01*
X59934Y-38462D01*
X59972Y-38481D01*
X59991Y-38500D01*
X60010Y-38538D01*
X60010Y-38595D01*
X59991Y-38633D01*
X59972Y-38652D01*
X59934Y-38671D01*
X59781Y-38671D01*
G54D10*
X50022Y-44721D02*
X50093Y-45021D01*
X50150Y-44807D01*
X50208Y-45021D01*
X50279Y-44721D01*
X50393Y-45021D02*
X50393Y-44721D01*
X50465Y-44721D01*
X50508Y-44736D01*
X50536Y-44764D01*
X50551Y-44793D01*
X50565Y-44850D01*
X50565Y-44893D01*
X50551Y-44950D01*
X50536Y-44979D01*
X50508Y-45007D01*
X50465Y-45021D01*
X50393Y-45021D01*
X50443Y-45507D02*
X50486Y-45521D01*
X50557Y-45521D01*
X50586Y-45507D01*
X50600Y-45493D01*
X50615Y-45464D01*
X50615Y-45436D01*
X50600Y-45407D01*
X50586Y-45393D01*
X50557Y-45379D01*
X50500Y-45364D01*
X50472Y-45350D01*
X50457Y-45336D01*
X50443Y-45307D01*
X50443Y-45279D01*
X50457Y-45250D01*
X50472Y-45236D01*
X50500Y-45221D01*
X50572Y-45221D01*
X50615Y-45236D01*
X50715Y-45221D02*
X50786Y-45521D01*
X50843Y-45307D01*
X50901Y-45521D01*
X50972Y-45221D01*
G54D13*
X55853Y-44589D02*
X55853Y-44389D01*
X55929Y-44389D01*
X55948Y-44398D01*
X55957Y-44408D01*
X55967Y-44427D01*
X55967Y-44456D01*
X55957Y-44475D01*
X55948Y-44484D01*
X55929Y-44494D01*
X55853Y-44494D01*
X56053Y-44589D02*
X56053Y-44389D01*
X56100Y-44389D01*
X56129Y-44398D01*
X56148Y-44418D01*
X56157Y-44437D01*
X56167Y-44475D01*
X56167Y-44503D01*
X56157Y-44541D01*
X56148Y-44560D01*
X56129Y-44579D01*
X56100Y-44589D01*
X56053Y-44589D01*
X56338Y-44389D02*
X56300Y-44389D01*
X56281Y-44398D01*
X56272Y-44408D01*
X56253Y-44437D01*
X56243Y-44475D01*
X56243Y-44551D01*
X56253Y-44570D01*
X56262Y-44579D01*
X56281Y-44589D01*
X56319Y-44589D01*
X56338Y-44579D01*
X56348Y-44570D01*
X56357Y-44551D01*
X56357Y-44503D01*
X56348Y-44484D01*
X56338Y-44475D01*
X56319Y-44465D01*
X56281Y-44465D01*
X56262Y-44475D01*
X56253Y-44484D01*
X56243Y-44503D01*
X55053Y-44589D02*
X55053Y-44389D01*
X55129Y-44389D01*
X55148Y-44398D01*
X55157Y-44408D01*
X55167Y-44427D01*
X55167Y-44456D01*
X55157Y-44475D01*
X55148Y-44484D01*
X55129Y-44494D01*
X55053Y-44494D01*
X55253Y-44589D02*
X55253Y-44389D01*
X55300Y-44389D01*
X55329Y-44398D01*
X55348Y-44418D01*
X55357Y-44437D01*
X55367Y-44475D01*
X55367Y-44503D01*
X55357Y-44541D01*
X55348Y-44560D01*
X55329Y-44579D01*
X55300Y-44589D01*
X55253Y-44589D01*
X55548Y-44389D02*
X55453Y-44389D01*
X55443Y-44484D01*
X55453Y-44475D01*
X55472Y-44465D01*
X55519Y-44465D01*
X55538Y-44475D01*
X55548Y-44484D01*
X55557Y-44503D01*
X55557Y-44551D01*
X55548Y-44570D01*
X55538Y-44579D01*
X55519Y-44589D01*
X55472Y-44589D01*
X55453Y-44579D01*
X55443Y-44570D01*
X52053Y-39289D02*
X52053Y-39089D01*
X52129Y-39089D01*
X52148Y-39098D01*
X52157Y-39108D01*
X52167Y-39127D01*
X52167Y-39156D01*
X52157Y-39175D01*
X52148Y-39184D01*
X52129Y-39194D01*
X52053Y-39194D01*
X52253Y-39289D02*
X52253Y-39089D01*
X52300Y-39089D01*
X52329Y-39098D01*
X52348Y-39118D01*
X52357Y-39137D01*
X52367Y-39175D01*
X52367Y-39203D01*
X52357Y-39241D01*
X52348Y-39260D01*
X52329Y-39279D01*
X52300Y-39289D01*
X52253Y-39289D01*
X52538Y-39156D02*
X52538Y-39289D01*
X52491Y-39079D02*
X52443Y-39222D01*
X52567Y-39222D01*
X52953Y-39289D02*
X52953Y-39089D01*
X53029Y-39089D01*
X53048Y-39098D01*
X53057Y-39108D01*
X53067Y-39127D01*
X53067Y-39156D01*
X53057Y-39175D01*
X53048Y-39184D01*
X53029Y-39194D01*
X52953Y-39194D01*
X53153Y-39289D02*
X53153Y-39089D01*
X53200Y-39089D01*
X53229Y-39098D01*
X53248Y-39118D01*
X53257Y-39137D01*
X53267Y-39175D01*
X53267Y-39203D01*
X53257Y-39241D01*
X53248Y-39260D01*
X53229Y-39279D01*
X53200Y-39289D01*
X53153Y-39289D01*
X53334Y-39089D02*
X53457Y-39089D01*
X53391Y-39165D01*
X53419Y-39165D01*
X53438Y-39175D01*
X53448Y-39184D01*
X53457Y-39203D01*
X53457Y-39251D01*
X53448Y-39270D01*
X53438Y-39279D01*
X53419Y-39289D01*
X53362Y-39289D01*
X53343Y-39279D01*
X53334Y-39270D01*
X53853Y-39289D02*
X53853Y-39089D01*
X53929Y-39089D01*
X53948Y-39098D01*
X53957Y-39108D01*
X53967Y-39127D01*
X53967Y-39156D01*
X53957Y-39175D01*
X53948Y-39184D01*
X53929Y-39194D01*
X53853Y-39194D01*
X54053Y-39289D02*
X54053Y-39089D01*
X54100Y-39089D01*
X54129Y-39098D01*
X54148Y-39118D01*
X54157Y-39137D01*
X54167Y-39175D01*
X54167Y-39203D01*
X54157Y-39241D01*
X54148Y-39260D01*
X54129Y-39279D01*
X54100Y-39289D01*
X54053Y-39289D01*
X54357Y-39289D02*
X54243Y-39289D01*
X54300Y-39289D02*
X54300Y-39089D01*
X54281Y-39118D01*
X54262Y-39137D01*
X54243Y-39146D01*
X55853Y-38389D02*
X55853Y-38189D01*
X55929Y-38189D01*
X55948Y-38198D01*
X55957Y-38208D01*
X55967Y-38227D01*
X55967Y-38256D01*
X55957Y-38275D01*
X55948Y-38284D01*
X55929Y-38294D01*
X55853Y-38294D01*
X56167Y-38370D02*
X56157Y-38379D01*
X56129Y-38389D01*
X56110Y-38389D01*
X56081Y-38379D01*
X56062Y-38360D01*
X56053Y-38341D01*
X56043Y-38303D01*
X56043Y-38275D01*
X56053Y-38237D01*
X56062Y-38218D01*
X56081Y-38198D01*
X56110Y-38189D01*
X56129Y-38189D01*
X56157Y-38198D01*
X56167Y-38208D01*
X56348Y-38189D02*
X56253Y-38189D01*
X56243Y-38284D01*
X56253Y-38275D01*
X56272Y-38265D01*
X56319Y-38265D01*
X56338Y-38275D01*
X56348Y-38284D01*
X56357Y-38303D01*
X56357Y-38351D01*
X56348Y-38370D01*
X56338Y-38379D01*
X56319Y-38389D01*
X56272Y-38389D01*
X56253Y-38379D01*
X56243Y-38370D01*
X56653Y-38389D02*
X56653Y-38189D01*
X56729Y-38189D01*
X56748Y-38198D01*
X56757Y-38208D01*
X56767Y-38227D01*
X56767Y-38256D01*
X56757Y-38275D01*
X56748Y-38284D01*
X56729Y-38294D01*
X56653Y-38294D01*
X56967Y-38370D02*
X56957Y-38379D01*
X56929Y-38389D01*
X56910Y-38389D01*
X56881Y-38379D01*
X56862Y-38360D01*
X56853Y-38341D01*
X56843Y-38303D01*
X56843Y-38275D01*
X56853Y-38237D01*
X56862Y-38218D01*
X56881Y-38198D01*
X56910Y-38189D01*
X56929Y-38189D01*
X56957Y-38198D01*
X56967Y-38208D01*
X57138Y-38256D02*
X57138Y-38389D01*
X57091Y-38179D02*
X57043Y-38322D01*
X57167Y-38322D01*
X57453Y-38389D02*
X57453Y-38189D01*
X57529Y-38189D01*
X57548Y-38198D01*
X57557Y-38208D01*
X57567Y-38227D01*
X57567Y-38256D01*
X57557Y-38275D01*
X57548Y-38284D01*
X57529Y-38294D01*
X57453Y-38294D01*
X57767Y-38370D02*
X57757Y-38379D01*
X57729Y-38389D01*
X57710Y-38389D01*
X57681Y-38379D01*
X57662Y-38360D01*
X57653Y-38341D01*
X57643Y-38303D01*
X57643Y-38275D01*
X57653Y-38237D01*
X57662Y-38218D01*
X57681Y-38198D01*
X57710Y-38189D01*
X57729Y-38189D01*
X57757Y-38198D01*
X57767Y-38208D01*
X57834Y-38189D02*
X57957Y-38189D01*
X57891Y-38265D01*
X57919Y-38265D01*
X57938Y-38275D01*
X57948Y-38284D01*
X57957Y-38303D01*
X57957Y-38351D01*
X57948Y-38370D01*
X57938Y-38379D01*
X57919Y-38389D01*
X57862Y-38389D01*
X57843Y-38379D01*
X57834Y-38370D01*
X58253Y-38389D02*
X58253Y-38189D01*
X58329Y-38189D01*
X58348Y-38198D01*
X58357Y-38208D01*
X58367Y-38227D01*
X58367Y-38256D01*
X58357Y-38275D01*
X58348Y-38284D01*
X58329Y-38294D01*
X58253Y-38294D01*
X58567Y-38370D02*
X58557Y-38379D01*
X58529Y-38389D01*
X58510Y-38389D01*
X58481Y-38379D01*
X58462Y-38360D01*
X58453Y-38341D01*
X58443Y-38303D01*
X58443Y-38275D01*
X58453Y-38237D01*
X58462Y-38218D01*
X58481Y-38198D01*
X58510Y-38189D01*
X58529Y-38189D01*
X58557Y-38198D01*
X58567Y-38208D01*
X58643Y-38208D02*
X58653Y-38198D01*
X58672Y-38189D01*
X58719Y-38189D01*
X58738Y-38198D01*
X58748Y-38208D01*
X58757Y-38227D01*
X58757Y-38246D01*
X58748Y-38275D01*
X58634Y-38389D01*
X58757Y-38389D01*
X60039Y-40101D02*
X59956Y-39982D01*
X59897Y-40101D02*
X59897Y-39851D01*
X59992Y-39851D01*
X60016Y-39863D01*
X60027Y-39875D01*
X60039Y-39899D01*
X60039Y-39935D01*
X60027Y-39958D01*
X60016Y-39970D01*
X59992Y-39982D01*
X59897Y-39982D01*
X60147Y-39970D02*
X60230Y-39970D01*
X60266Y-40101D02*
X60147Y-40101D01*
X60147Y-39851D01*
X60266Y-39851D01*
X60503Y-39863D02*
X60480Y-39851D01*
X60444Y-39851D01*
X60408Y-39863D01*
X60384Y-39887D01*
X60373Y-39911D01*
X60361Y-39958D01*
X60361Y-39994D01*
X60373Y-40042D01*
X60384Y-40065D01*
X60408Y-40089D01*
X60444Y-40101D01*
X60468Y-40101D01*
X60503Y-40089D01*
X60515Y-40077D01*
X60515Y-39994D01*
X60468Y-39994D01*
X57609Y-37001D02*
X57609Y-36751D01*
X57751Y-37001D01*
X57751Y-36751D01*
X57835Y-36751D02*
X57978Y-36751D01*
X57906Y-37001D02*
X57906Y-36751D01*
X58203Y-36977D02*
X58191Y-36989D01*
X58156Y-37001D01*
X58132Y-37001D01*
X58096Y-36989D01*
X58072Y-36965D01*
X58061Y-36942D01*
X58049Y-36894D01*
X58049Y-36858D01*
X58061Y-36811D01*
X58072Y-36787D01*
X58096Y-36763D01*
X58132Y-36751D01*
X58156Y-36751D01*
X58191Y-36763D01*
X58203Y-36775D01*
X53701Y-43542D02*
X53582Y-43625D01*
X53701Y-43684D02*
X53451Y-43684D01*
X53451Y-43589D01*
X53463Y-43565D01*
X53475Y-43554D01*
X53499Y-43542D01*
X53535Y-43542D01*
X53558Y-43554D01*
X53570Y-43565D01*
X53582Y-43589D01*
X53582Y-43684D01*
X53451Y-43458D02*
X53451Y-43304D01*
X53546Y-43387D01*
X53546Y-43351D01*
X53558Y-43327D01*
X53570Y-43315D01*
X53594Y-43304D01*
X53654Y-43304D01*
X53677Y-43315D01*
X53689Y-43327D01*
X53701Y-43351D01*
X53701Y-43423D01*
X53689Y-43446D01*
X53677Y-43458D01*
X58877Y-44942D02*
X58889Y-44954D01*
X58901Y-44989D01*
X58901Y-45013D01*
X58889Y-45049D01*
X58865Y-45073D01*
X58842Y-45084D01*
X58794Y-45096D01*
X58758Y-45096D01*
X58711Y-45084D01*
X58687Y-45073D01*
X58663Y-45049D01*
X58651Y-45013D01*
X58651Y-44989D01*
X58663Y-44954D01*
X58675Y-44942D01*
X58651Y-44858D02*
X58651Y-44704D01*
X58746Y-44787D01*
X58746Y-44751D01*
X58758Y-44727D01*
X58770Y-44715D01*
X58794Y-44704D01*
X58854Y-44704D01*
X58877Y-44715D01*
X58889Y-44727D01*
X58901Y-44751D01*
X58901Y-44823D01*
X58889Y-44846D01*
X58877Y-44858D01*
X53958Y-44477D02*
X53946Y-44489D01*
X53911Y-44501D01*
X53887Y-44501D01*
X53851Y-44489D01*
X53827Y-44465D01*
X53816Y-44442D01*
X53804Y-44394D01*
X53804Y-44358D01*
X53816Y-44311D01*
X53827Y-44287D01*
X53851Y-44263D01*
X53887Y-44251D01*
X53911Y-44251D01*
X53946Y-44263D01*
X53958Y-44275D01*
X54054Y-44275D02*
X54066Y-44263D01*
X54089Y-44251D01*
X54149Y-44251D01*
X54173Y-44263D01*
X54185Y-44275D01*
X54196Y-44299D01*
X54196Y-44323D01*
X54185Y-44358D01*
X54042Y-44501D01*
X54196Y-44501D01*
G54D10*
X51171Y-38064D02*
X51029Y-38164D01*
X51171Y-38236D02*
X50871Y-38236D01*
X50871Y-38121D01*
X50886Y-38093D01*
X50900Y-38078D01*
X50929Y-38064D01*
X50971Y-38064D01*
X51000Y-38078D01*
X51014Y-38093D01*
X51029Y-38121D01*
X51029Y-38236D01*
X51157Y-37821D02*
X51171Y-37850D01*
X51171Y-37907D01*
X51157Y-37936D01*
X51129Y-37950D01*
X51014Y-37950D01*
X50986Y-37936D01*
X50971Y-37907D01*
X50971Y-37850D01*
X50986Y-37821D01*
X51014Y-37807D01*
X51043Y-37807D01*
X51071Y-37950D01*
X51171Y-37636D02*
X51157Y-37664D01*
X51129Y-37679D01*
X50871Y-37679D01*
X51171Y-37393D02*
X51014Y-37393D01*
X50986Y-37407D01*
X50971Y-37436D01*
X50971Y-37493D01*
X50986Y-37522D01*
X51157Y-37393D02*
X51171Y-37422D01*
X51171Y-37493D01*
X51157Y-37522D01*
X51129Y-37536D01*
X51100Y-37536D01*
X51071Y-37522D01*
X51057Y-37493D01*
X51057Y-37422D01*
X51043Y-37393D01*
X50971Y-37279D02*
X51171Y-37208D01*
X50971Y-37136D02*
X51171Y-37208D01*
X51243Y-37236D01*
X51257Y-37251D01*
X51271Y-37279D01*
G54D17*
X51350Y-42929D02*
X51336Y-42957D01*
X51307Y-42986D01*
X51264Y-43029D01*
X51250Y-43057D01*
X51250Y-43086D01*
X51321Y-43071D02*
X51307Y-43100D01*
X51279Y-43129D01*
X51221Y-43143D01*
X51121Y-43143D01*
X51064Y-43129D01*
X51036Y-43100D01*
X51021Y-43071D01*
X51021Y-43014D01*
X51036Y-42986D01*
X51064Y-42957D01*
X51121Y-42943D01*
X51221Y-42943D01*
X51279Y-42957D01*
X51307Y-42986D01*
X51321Y-43014D01*
X51321Y-43071D01*
X51321Y-42657D02*
X51321Y-42829D01*
X51321Y-42743D02*
X51021Y-42743D01*
X51064Y-42772D01*
X51093Y-42800D01*
X51107Y-42829D01*
G54D11*
X50384Y-39696D02*
X50384Y-39539D01*
X50422Y-39539D01*
X50444Y-39547D01*
X50459Y-39561D01*
X50467Y-39576D01*
X50474Y-39606D01*
X50474Y-39629D01*
X50467Y-39659D01*
X50459Y-39674D01*
X50444Y-39689D01*
X50422Y-39696D01*
X50384Y-39696D01*
X50624Y-39696D02*
X50534Y-39696D01*
X50579Y-39696D02*
X50579Y-39539D01*
X50564Y-39561D01*
X50549Y-39576D01*
X50534Y-39584D01*
G54D13*
X61092Y-38651D02*
X61092Y-38830D01*
X61080Y-38865D01*
X61056Y-38889D01*
X61021Y-38901D01*
X60997Y-38901D01*
X61211Y-38901D02*
X61211Y-38651D01*
X61306Y-38651D01*
X61330Y-38663D01*
X61341Y-38675D01*
X61353Y-38699D01*
X61353Y-38735D01*
X61341Y-38758D01*
X61330Y-38770D01*
X61306Y-38782D01*
X61211Y-38782D01*
X61591Y-38901D02*
X61449Y-38901D01*
X61520Y-38901D02*
X61520Y-38651D01*
X61496Y-38687D01*
X61472Y-38711D01*
X61449Y-38723D01*
M02*
