G04 (created by PCBNEW (2011-nov-30)-testing) date Sun 23 Sep 2012 15:15:45 EDT*
%MOIN*%
G04 Gerber Fmt 3.4, Leading zero omitted, Abs format*
%FSLAX34Y34*%
G01*
G70*
G90*
G04 APERTURE LIST*
%ADD10C,0.006*%
%ADD11R,0.0709X0.0433*%
%ADD12R,0.0787X0.0177*%
%ADD13R,0.0177X0.0787*%
%ADD14R,0.035X0.055*%
%ADD15R,0.055X0.035*%
%ADD16R,0.06X0.06*%
%ADD17C,0.06*%
%ADD18C,0.09*%
%ADD19C,0.045*%
%ADD20R,0.03X0.02*%
%ADD21R,0.0315X0.0394*%
%ADD22R,0.0394X0.0236*%
%ADD23C,0.035*%
%ADD24C,0.012*%
G04 APERTURE END LIST*
G54D10*
G54D11*
X54653Y-38481D03*
X52213Y-37063D03*
X52213Y-38481D03*
X54653Y-37063D03*
G54D12*
X54204Y-42893D03*
X54204Y-42578D03*
X54204Y-42263D03*
X54204Y-41948D03*
X54204Y-41633D03*
X54204Y-41318D03*
X54204Y-41003D03*
X54204Y-40688D03*
X57970Y-40690D03*
X57970Y-42900D03*
X57970Y-42580D03*
X57970Y-42260D03*
X57970Y-41950D03*
X57970Y-41630D03*
X57970Y-41320D03*
X57970Y-41000D03*
G54D13*
X54988Y-39900D03*
X55302Y-39900D03*
X55618Y-39900D03*
X55932Y-39900D03*
X56248Y-39900D03*
X56562Y-39900D03*
X56878Y-39900D03*
X57192Y-39900D03*
X54990Y-43680D03*
X55300Y-43680D03*
X55620Y-43680D03*
X55930Y-43680D03*
X56240Y-43680D03*
X56560Y-43680D03*
X56880Y-43680D03*
X57200Y-43680D03*
G54D14*
X52225Y-42100D03*
X52975Y-42100D03*
X56325Y-37800D03*
X57075Y-37800D03*
G54D15*
X59400Y-42875D03*
X59400Y-42125D03*
G54D16*
X61709Y-44980D03*
G54D17*
X60709Y-44980D03*
X61709Y-43980D03*
X60709Y-43980D03*
X61709Y-42980D03*
X60709Y-42980D03*
X61709Y-41980D03*
X60709Y-41980D03*
G54D16*
X61717Y-36878D03*
G54D17*
X61717Y-37878D03*
X60717Y-36878D03*
X60717Y-37878D03*
X59717Y-36878D03*
X59717Y-37878D03*
G54D16*
X50300Y-43100D03*
G54D17*
X50300Y-44100D03*
G54D16*
X52600Y-45000D03*
G54D17*
X51600Y-45000D03*
G54D18*
X59150Y-40900D03*
X51276Y-40900D03*
G54D19*
X56100Y-45000D03*
X55300Y-45000D03*
X52300Y-39700D03*
X53200Y-39700D03*
X54100Y-39700D03*
X56100Y-38800D03*
X56900Y-38800D03*
X57700Y-38800D03*
X58500Y-38800D03*
G54D20*
X60800Y-40225D03*
X60800Y-40975D03*
X61800Y-40225D03*
X60800Y-40600D03*
X61800Y-40975D03*
G54D14*
X56325Y-36900D03*
X57075Y-36900D03*
G54D15*
X53000Y-43875D03*
X53000Y-43125D03*
X59400Y-44125D03*
X59400Y-44875D03*
G54D14*
X54475Y-45000D03*
X53725Y-45000D03*
G54D16*
X50300Y-37200D03*
G54D17*
X50300Y-38200D03*
G54D21*
X51700Y-42967D03*
X52075Y-43833D03*
X51325Y-43833D03*
G54D22*
X50067Y-39200D03*
X50933Y-39200D03*
G54D14*
X60925Y-39400D03*
X61675Y-39400D03*
G54D23*
X51573Y-42248D03*
X55458Y-42980D03*
X58396Y-40279D03*
X55978Y-44424D03*
X56625Y-41310D03*
X58088Y-38299D03*
X58664Y-42881D03*
X58612Y-44126D03*
X57117Y-41905D03*
X56947Y-40597D03*
G54D24*
X51719Y-42248D02*
X51867Y-42100D01*
X51573Y-42248D02*
X51719Y-42248D01*
X52225Y-42100D02*
X51867Y-42100D01*
X55620Y-43680D02*
X55620Y-43103D01*
X55581Y-43103D02*
X55620Y-43103D01*
X55458Y-42980D02*
X55581Y-43103D01*
X54204Y-42263D02*
X54781Y-42263D01*
X54204Y-42263D02*
X53628Y-42263D01*
X53628Y-41633D02*
X53628Y-42263D01*
X52009Y-41633D02*
X53628Y-41633D01*
X51276Y-40900D02*
X52009Y-41633D01*
X53628Y-41633D02*
X54204Y-41633D01*
X60925Y-38670D02*
X61717Y-37878D01*
X60925Y-39400D02*
X60925Y-38670D01*
X57970Y-42580D02*
X54781Y-42580D01*
X54781Y-43103D02*
X54781Y-42580D01*
X54475Y-43409D02*
X54781Y-43103D01*
X54475Y-45000D02*
X54475Y-43409D01*
X54781Y-42580D02*
X54781Y-42263D01*
X58450Y-40225D02*
X60800Y-40225D01*
X58396Y-40279D02*
X58450Y-40225D01*
X60800Y-40225D02*
X60967Y-40225D01*
X60925Y-40183D02*
X60925Y-39400D01*
X60967Y-40225D02*
X60925Y-40183D01*
X61133Y-40391D02*
X60967Y-40225D01*
X61133Y-40975D02*
X61133Y-40391D01*
X60800Y-40975D02*
X61133Y-40975D01*
X55930Y-44376D02*
X55930Y-43680D01*
X55978Y-44424D02*
X55930Y-44376D01*
X54988Y-39900D02*
X54988Y-40476D01*
X55822Y-41310D02*
X56625Y-41310D01*
X54988Y-40476D02*
X55822Y-41310D01*
X61717Y-36878D02*
X61717Y-37361D01*
X61437Y-41708D02*
X61569Y-41840D01*
X61437Y-39965D02*
X61437Y-41708D01*
X61284Y-39812D02*
X61437Y-39965D01*
X61284Y-38981D02*
X61284Y-39812D01*
X61903Y-38362D02*
X61284Y-38981D01*
X62182Y-38362D02*
X61903Y-38362D01*
X62200Y-38344D02*
X62182Y-38362D01*
X62200Y-37395D02*
X62200Y-38344D01*
X62166Y-37361D02*
X62200Y-37395D01*
X61717Y-37361D02*
X62166Y-37361D01*
X61569Y-41840D02*
X61709Y-41980D01*
X57581Y-43299D02*
X57200Y-43680D01*
X59685Y-43299D02*
X57581Y-43299D01*
X60520Y-42464D02*
X59685Y-43299D01*
X60945Y-42464D02*
X60520Y-42464D01*
X61569Y-41840D02*
X60945Y-42464D01*
X56880Y-43680D02*
X56880Y-44256D01*
X60374Y-42980D02*
X60709Y-42980D01*
X59797Y-43557D02*
X60374Y-42980D01*
X58658Y-43557D02*
X59797Y-43557D01*
X57959Y-44256D02*
X58658Y-43557D01*
X56880Y-44256D02*
X57959Y-44256D01*
X55791Y-38299D02*
X58088Y-38299D01*
X55665Y-38425D02*
X55791Y-38299D01*
X55665Y-38997D02*
X55665Y-38425D01*
X55932Y-39264D02*
X55665Y-38997D01*
X55932Y-39900D02*
X55932Y-39264D01*
X58566Y-42881D02*
X58547Y-42900D01*
X58664Y-42881D02*
X58566Y-42881D01*
X57970Y-42900D02*
X58547Y-42900D01*
X56560Y-44154D02*
X56560Y-43680D01*
X56636Y-44230D02*
X56560Y-44154D01*
X56636Y-44479D02*
X56636Y-44230D01*
X56670Y-44513D02*
X56636Y-44479D01*
X58225Y-44513D02*
X56670Y-44513D01*
X58612Y-44126D02*
X58225Y-44513D01*
X61675Y-39400D02*
X61675Y-39858D01*
X61800Y-39983D02*
X61675Y-39858D01*
X61800Y-40225D02*
X61800Y-39983D01*
X60519Y-43464D02*
X59858Y-44125D01*
X61175Y-43464D02*
X60519Y-43464D01*
X61193Y-43446D02*
X61175Y-43464D01*
X61193Y-42597D02*
X61193Y-43446D01*
X61310Y-42480D02*
X61193Y-42597D01*
X62166Y-42480D02*
X61310Y-42480D01*
X62200Y-42446D02*
X62166Y-42480D01*
X62200Y-40292D02*
X62200Y-42446D01*
X62133Y-40225D02*
X62200Y-40292D01*
X61800Y-40225D02*
X62133Y-40225D01*
X59857Y-44128D02*
X59857Y-44125D01*
X60709Y-44980D02*
X59857Y-44128D01*
X59400Y-44125D02*
X59857Y-44125D01*
X59857Y-44125D02*
X59858Y-44125D01*
X55731Y-36664D02*
X55967Y-36900D01*
X53149Y-36664D02*
X55731Y-36664D01*
X52750Y-37063D02*
X53149Y-36664D01*
X56325Y-36900D02*
X55967Y-36900D01*
X52084Y-44516D02*
X53459Y-44516D01*
X51600Y-45000D02*
X52084Y-44516D01*
X53485Y-44542D02*
X53725Y-44542D01*
X53459Y-44516D02*
X53485Y-44542D01*
X53725Y-45000D02*
X53725Y-44542D01*
X61709Y-44980D02*
X61226Y-44980D01*
X53459Y-43550D02*
X53459Y-44516D01*
X53425Y-43516D02*
X53459Y-43550D01*
X52392Y-43516D02*
X53425Y-43516D01*
X52075Y-43833D02*
X52392Y-43516D01*
X59630Y-45463D02*
X59400Y-45233D01*
X61192Y-45463D02*
X59630Y-45463D01*
X61226Y-45429D02*
X61192Y-45463D01*
X61226Y-44980D02*
X61226Y-45429D01*
X50933Y-39200D02*
X50933Y-39501D01*
X59400Y-42125D02*
X59400Y-41767D01*
X59150Y-41498D02*
X59150Y-40900D01*
X58679Y-41498D02*
X59150Y-41498D01*
X58547Y-41630D02*
X58679Y-41498D01*
X59400Y-41748D02*
X59400Y-41767D01*
X59150Y-41498D02*
X59400Y-41748D01*
X52213Y-37063D02*
X52482Y-37063D01*
X52482Y-37063D02*
X52750Y-37063D01*
X50934Y-38899D02*
X50933Y-38899D01*
X50934Y-38611D02*
X50934Y-38899D01*
X52482Y-37063D02*
X50934Y-38611D01*
X50933Y-39200D02*
X50933Y-38899D01*
X58259Y-41630D02*
X58547Y-41630D01*
X58259Y-41630D02*
X57970Y-41630D01*
X57970Y-41630D02*
X57394Y-41630D01*
X59400Y-44875D02*
X59400Y-45233D01*
X59450Y-40600D02*
X59150Y-40900D01*
X60800Y-40600D02*
X59450Y-40600D01*
X52750Y-41318D02*
X54204Y-41318D01*
X50933Y-39501D02*
X52750Y-41318D01*
X54204Y-41318D02*
X54781Y-41318D01*
X54204Y-41948D02*
X54781Y-41948D01*
X57119Y-41905D02*
X57117Y-41905D01*
X57394Y-41630D02*
X57119Y-41905D01*
X57117Y-41905D02*
X54781Y-41905D01*
X54781Y-41318D02*
X54781Y-41905D01*
X54781Y-41905D02*
X54781Y-41948D01*
X58547Y-42022D02*
X58547Y-41950D01*
X59042Y-42517D02*
X58547Y-42022D01*
X59400Y-42517D02*
X59042Y-42517D01*
X59400Y-42875D02*
X59400Y-42517D01*
X57970Y-41950D02*
X58547Y-41950D01*
X52600Y-45000D02*
X53083Y-45000D01*
X53083Y-45448D02*
X53083Y-45000D01*
X53117Y-45482D02*
X53083Y-45448D01*
X56475Y-45482D02*
X53117Y-45482D01*
X56509Y-45448D02*
X56475Y-45482D01*
X56509Y-44814D02*
X56509Y-45448D01*
X56393Y-44698D02*
X56509Y-44814D01*
X56393Y-44332D02*
X56393Y-44698D01*
X56240Y-44179D02*
X56393Y-44332D01*
X56240Y-43680D02*
X56240Y-44179D01*
X54477Y-39323D02*
X55302Y-39323D01*
X54100Y-39700D02*
X54477Y-39323D01*
X55302Y-39900D02*
X55302Y-39323D01*
X55300Y-43680D02*
X55300Y-44256D01*
X56044Y-45000D02*
X56100Y-45000D01*
X55300Y-44256D02*
X56044Y-45000D01*
X54990Y-44690D02*
X54990Y-43680D01*
X55300Y-45000D02*
X54990Y-44690D01*
X53628Y-42955D02*
X53628Y-42893D01*
X53458Y-43125D02*
X53628Y-42955D01*
X53000Y-43125D02*
X53458Y-43125D01*
X54204Y-42893D02*
X53628Y-42893D01*
X52256Y-43125D02*
X53000Y-43125D01*
X51929Y-43452D02*
X52256Y-43125D01*
X50948Y-43452D02*
X51929Y-43452D01*
X50300Y-44100D02*
X50948Y-43452D01*
X53453Y-42578D02*
X54204Y-42578D01*
X53333Y-42458D02*
X53453Y-42578D01*
X53333Y-42100D02*
X53333Y-42458D01*
X52975Y-42100D02*
X53333Y-42100D01*
X57075Y-36900D02*
X56717Y-36900D01*
X56325Y-37800D02*
X56683Y-37800D01*
X56717Y-36900D02*
X56717Y-37342D01*
X56717Y-37766D02*
X56683Y-37800D01*
X56717Y-37342D02*
X56717Y-37766D01*
X58038Y-40622D02*
X57970Y-40690D01*
X58038Y-40131D02*
X58038Y-40622D01*
X58248Y-39921D02*
X58038Y-40131D01*
X58449Y-39921D02*
X58248Y-39921D01*
X59321Y-39049D02*
X58449Y-39921D01*
X59321Y-38650D02*
X59321Y-39049D01*
X58081Y-37410D02*
X59321Y-38650D01*
X57394Y-37410D02*
X58081Y-37410D01*
X57326Y-37342D02*
X57394Y-37410D01*
X56717Y-37342D02*
X57326Y-37342D01*
X57977Y-39323D02*
X57192Y-39323D01*
X58500Y-38800D02*
X57977Y-39323D01*
X57192Y-39900D02*
X57192Y-39323D01*
X56878Y-40528D02*
X56878Y-39900D01*
X56947Y-40597D02*
X56878Y-40528D01*
X56562Y-39138D02*
X56562Y-39900D01*
X56900Y-38800D02*
X56562Y-39138D01*
X56248Y-38948D02*
X56248Y-39900D01*
X56100Y-38800D02*
X56248Y-38948D01*
X53628Y-40128D02*
X53628Y-40688D01*
X53200Y-39700D02*
X53628Y-40128D01*
X54204Y-40688D02*
X53628Y-40688D01*
X53138Y-41003D02*
X54204Y-41003D01*
X52300Y-40165D02*
X53138Y-41003D01*
X52300Y-39700D02*
X52300Y-40165D01*
X51700Y-42967D02*
X51360Y-42967D01*
X50067Y-41674D02*
X51360Y-42967D01*
X50067Y-39200D02*
X50067Y-41674D01*
X50300Y-38666D02*
X50300Y-38200D01*
X50067Y-38899D02*
X50300Y-38666D01*
X50067Y-39200D02*
X50067Y-38899D01*
X52542Y-44180D02*
X52542Y-43875D01*
X52508Y-44214D02*
X52542Y-44180D01*
X51706Y-44214D02*
X52508Y-44214D01*
X51666Y-44174D02*
X51706Y-44214D01*
X51666Y-43833D02*
X51666Y-44174D01*
X51325Y-43833D02*
X51666Y-43833D01*
X53000Y-43875D02*
X52542Y-43875D01*
X57970Y-41000D02*
X57394Y-41000D01*
X57075Y-37800D02*
X57433Y-37800D01*
X57394Y-40504D02*
X57394Y-41000D01*
X57795Y-40103D02*
X57394Y-40504D01*
X57795Y-40030D02*
X57795Y-40103D01*
X58147Y-39678D02*
X57795Y-40030D01*
X58220Y-39678D02*
X58147Y-39678D01*
X59076Y-38822D02*
X58220Y-39678D01*
X59076Y-38775D02*
X59076Y-38822D01*
X58101Y-37800D02*
X59076Y-38775D01*
X57433Y-37800D02*
X58101Y-37800D01*
X55618Y-39295D02*
X55618Y-39900D01*
X55190Y-38867D02*
X55618Y-39295D01*
X55190Y-38481D02*
X55190Y-38867D01*
X54653Y-38481D02*
X55190Y-38481D01*
M02*
