G04 (created by PCBNEW (2011-nov-30)-testing) date Sun 23 Sep 2012 15:15:45 EDT*
%MOIN*%
G04 Gerber Fmt 3.4, Leading zero omitted, Abs format*
%FSLAX34Y34*%
G01*
G70*
G90*
G04 APERTURE LIST*
%ADD10C,0.006*%
%ADD11C,0.015*%
%ADD12C,0.012*%
G04 APERTURE END LIST*
G54D10*
G54D11*
X50193Y-42180D02*
X51866Y-42180D01*
X51768Y-41884D02*
X50587Y-41884D01*
X51768Y-39916D02*
X50587Y-39916D01*
X50193Y-39620D02*
X51866Y-39620D01*
X50530Y-39900D02*
X50530Y-41900D01*
X50181Y-39650D02*
X50181Y-42150D01*
X59535Y-40900D02*
G75*
G03X59535Y-40900I-3535J0D01*
G74*
G01*
X60301Y-40900D02*
G75*
G03X60301Y-40900I-4301J0D01*
G74*
G01*
G54D12*
X57499Y-42798D02*
X57413Y-42826D01*
X57385Y-42855D01*
X57356Y-42912D01*
X57356Y-42998D01*
X57385Y-43055D01*
X57413Y-43083D01*
X57471Y-43112D01*
X57699Y-43112D01*
X57699Y-42512D01*
X57499Y-42512D01*
X57442Y-42540D01*
X57413Y-42569D01*
X57385Y-42626D01*
X57385Y-42683D01*
X57413Y-42740D01*
X57442Y-42769D01*
X57499Y-42798D01*
X57699Y-42798D01*
X57128Y-42940D02*
X56842Y-42940D01*
X57185Y-43112D02*
X56985Y-42512D01*
X56785Y-43112D01*
X56671Y-42512D02*
X56328Y-42512D01*
X56499Y-43112D02*
X56499Y-42512D01*
X56214Y-42512D02*
X55871Y-42512D01*
X56042Y-43112D02*
X56042Y-42512D01*
X55671Y-42798D02*
X55471Y-42798D01*
X55385Y-43112D02*
X55671Y-43112D01*
X55671Y-42512D01*
X55385Y-42512D01*
X54785Y-43112D02*
X54985Y-42826D01*
X55128Y-43112D02*
X55128Y-42512D01*
X54900Y-42512D01*
X54842Y-42540D01*
X54814Y-42569D01*
X54785Y-42626D01*
X54785Y-42712D01*
X54814Y-42769D01*
X54842Y-42798D01*
X54900Y-42826D01*
X55128Y-42826D01*
X54414Y-42826D02*
X54414Y-43112D01*
X54614Y-42512D02*
X54414Y-42826D01*
X54214Y-42512D01*
M02*
