M48
INCH,TZ
T1C0.025
T2C0.032
T3C0.040
%
G90
G05
T1
X51573Y-42248
X55458Y-42980
X55978Y-44424
X56625Y-41310
X56947Y-40597
X57117Y-41905
X58088Y-38299
X58396Y-40279
X58612Y-44126
X58664Y-42881
T2
X52300Y-39700
X53200Y-39700
X54100Y-39700
X55300Y-45000
X56100Y-38800
X56100Y-45000
X56900Y-38800
X57700Y-38800
X58500Y-38800
T3
X50300Y-37200
X50300Y-38200
X50300Y-43100
X50300Y-44100
X51276Y-40900
X51600Y-45000
X52600Y-45000
X59150Y-40900
X59717Y-36878
X59717Y-37878
X60709Y-41980
X60709Y-42980
X60709Y-43980
X60709Y-44980
X60717Y-36878
X60717Y-37878
X61709Y-41980
X61709Y-42980
X61709Y-43980
X61709Y-44980
X61717Y-36878
X61717Y-37878
T0
M30
