G04 (created by PCBNEW (2011-nov-30)-testing) date Thu 18 Oct 2012 10:53:08 EDT*
%MOIN*%
G04 Gerber Fmt 3.4, Leading zero omitted, Abs format*
%FSLAX34Y34*%
G01*
G70*
G90*
G04 APERTURE LIST*
%ADD10C,3.93701e-06*%
%ADD11R,0.0709X0.0433*%
%ADD12R,0.0787X0.0177*%
%ADD13R,0.0177X0.0787*%
%ADD14R,0.035X0.055*%
%ADD15R,0.055X0.035*%
%ADD16R,0.06X0.06*%
%ADD17C,0.06*%
%ADD18C,0.045*%
%ADD19R,0.03X0.02*%
%ADD20R,0.0315X0.0394*%
%ADD21R,0.0394X0.0236*%
%ADD22R,0.045X0.025*%
%ADD23R,0.025X0.045*%
%ADD24C,0.09*%
%ADD25C,0.035*%
%ADD26C,0.012*%
G04 APERTURE END LIST*
G54D10*
G54D11*
X54653Y-38481D03*
X52213Y-37063D03*
X52213Y-38481D03*
X54653Y-37063D03*
G54D12*
X54204Y-42893D03*
X54204Y-42578D03*
X54204Y-42263D03*
X54204Y-41948D03*
X54204Y-41633D03*
X54204Y-41318D03*
X54204Y-41003D03*
X54204Y-40688D03*
X57970Y-40690D03*
X57970Y-42900D03*
X57970Y-42580D03*
X57970Y-42260D03*
X57970Y-41950D03*
X57970Y-41630D03*
X57970Y-41320D03*
X57970Y-41000D03*
G54D13*
X54988Y-39900D03*
X55302Y-39900D03*
X55618Y-39900D03*
X55932Y-39900D03*
X56248Y-39900D03*
X56562Y-39900D03*
X56878Y-39900D03*
X57192Y-39900D03*
X54990Y-43680D03*
X55300Y-43680D03*
X55620Y-43680D03*
X55930Y-43680D03*
X56240Y-43680D03*
X56560Y-43680D03*
X56880Y-43680D03*
X57200Y-43680D03*
G54D14*
X52225Y-42100D03*
X52975Y-42100D03*
X56325Y-37800D03*
X57075Y-37800D03*
G54D15*
X59400Y-42875D03*
X59400Y-42125D03*
G54D16*
X61709Y-44979D03*
G54D17*
X60709Y-44979D03*
X61709Y-43979D03*
X60709Y-43979D03*
X61709Y-42979D03*
X60709Y-42979D03*
X61709Y-41979D03*
X60709Y-41979D03*
G54D16*
X61716Y-36877D03*
G54D17*
X61716Y-37877D03*
X60716Y-36877D03*
X60716Y-37877D03*
X59716Y-36877D03*
X59716Y-37877D03*
G54D16*
X50300Y-43100D03*
G54D17*
X50300Y-44100D03*
G54D16*
X52600Y-45000D03*
G54D17*
X51600Y-45000D03*
G54D18*
X56100Y-45000D03*
X55300Y-45000D03*
X52300Y-39700D03*
X53200Y-39700D03*
X54100Y-39700D03*
X56100Y-38800D03*
X56900Y-38800D03*
X57700Y-38800D03*
X58500Y-38800D03*
G54D19*
X60800Y-40225D03*
X60800Y-40975D03*
X61800Y-40225D03*
X60800Y-40600D03*
X61800Y-40975D03*
G54D14*
X56325Y-36900D03*
X57075Y-36900D03*
G54D15*
X53000Y-43875D03*
X53000Y-43125D03*
G54D16*
X50300Y-37200D03*
G54D17*
X50300Y-38200D03*
G54D20*
X51700Y-42967D03*
X52075Y-43833D03*
X51325Y-43833D03*
G54D21*
X50067Y-39200D03*
X50933Y-39200D03*
G54D14*
X60925Y-39400D03*
X61675Y-39400D03*
G54D22*
X59400Y-44200D03*
X59400Y-44800D03*
G54D23*
X52900Y-40900D03*
X52300Y-40900D03*
G54D16*
X50300Y-41400D03*
G54D17*
X50300Y-40400D03*
G54D24*
X59150Y-40900D03*
X51276Y-40900D03*
G54D25*
X54904Y-42976D03*
X51747Y-42190D03*
X54777Y-39203D03*
X58744Y-42934D03*
X52300Y-41432D03*
X55837Y-36988D03*
X51560Y-37270D03*
X51058Y-39623D03*
X59920Y-44915D03*
X61249Y-40605D03*
X53458Y-41299D03*
X55020Y-41904D03*
X56705Y-40616D03*
X56003Y-42963D03*
G54D26*
X55490Y-42976D02*
X55620Y-43106D01*
X54904Y-42976D02*
X55490Y-42976D01*
X55620Y-43680D02*
X55620Y-43106D01*
X52225Y-42100D02*
X51869Y-42100D01*
X51838Y-42100D02*
X51747Y-42190D01*
X51869Y-42100D02*
X51838Y-42100D01*
X54204Y-41632D02*
X53630Y-41632D01*
X60800Y-40225D02*
X60634Y-40225D01*
X60925Y-38669D02*
X60925Y-39400D01*
X61716Y-37877D02*
X60925Y-38669D01*
X55514Y-42262D02*
X54204Y-42262D01*
X55831Y-42580D02*
X55514Y-42262D01*
X57970Y-42580D02*
X55831Y-42580D01*
X52900Y-40900D02*
X52900Y-40494D01*
X53757Y-42262D02*
X54204Y-42262D01*
X53630Y-42136D02*
X53757Y-42262D01*
X53630Y-41632D02*
X53630Y-42136D01*
X52900Y-40900D02*
X52900Y-41305D01*
X60925Y-39934D02*
X60634Y-40225D01*
X60925Y-39400D02*
X60925Y-39934D01*
X60469Y-40390D02*
X60469Y-40975D01*
X60634Y-40225D02*
X60469Y-40390D01*
X60800Y-40975D02*
X60469Y-40975D01*
X53609Y-41654D02*
X53630Y-41632D01*
X53249Y-41654D02*
X53609Y-41654D01*
X52900Y-41305D02*
X53249Y-41654D01*
X51681Y-40494D02*
X51275Y-40900D01*
X52900Y-40494D02*
X51681Y-40494D01*
X50780Y-41395D02*
X50780Y-41400D01*
X51275Y-40900D02*
X50780Y-41395D01*
X50300Y-41400D02*
X50780Y-41400D01*
X61709Y-44111D02*
X61709Y-43979D01*
X61189Y-44630D02*
X61709Y-44111D01*
X61189Y-45192D02*
X61189Y-44630D01*
X60898Y-45483D02*
X61189Y-45192D01*
X57160Y-45483D02*
X60898Y-45483D01*
X55930Y-44253D02*
X57160Y-45483D01*
X55930Y-43680D02*
X55930Y-44253D01*
X54900Y-39326D02*
X54777Y-39203D01*
X54987Y-39326D02*
X54900Y-39326D01*
X54987Y-39900D02*
X54987Y-39326D01*
X61716Y-36877D02*
X61236Y-36877D01*
X57564Y-43315D02*
X57200Y-43680D01*
X59666Y-43315D02*
X57564Y-43315D01*
X60216Y-42765D02*
X59666Y-43315D01*
X60216Y-41521D02*
X60216Y-42765D01*
X60445Y-41292D02*
X60216Y-41521D01*
X60229Y-41076D02*
X60445Y-41292D01*
X60229Y-37682D02*
X60229Y-41076D01*
X60553Y-37358D02*
X60229Y-37682D01*
X60936Y-37358D02*
X60553Y-37358D01*
X61236Y-37058D02*
X60936Y-37358D01*
X61236Y-36877D02*
X61236Y-37058D01*
X61021Y-41292D02*
X61709Y-41979D01*
X60445Y-41292D02*
X61021Y-41292D01*
X58020Y-44253D02*
X56880Y-44253D01*
X58626Y-43647D02*
X58020Y-44253D01*
X60041Y-43647D02*
X58626Y-43647D01*
X60709Y-42979D02*
X60041Y-43647D01*
X56880Y-43680D02*
X56880Y-44253D01*
X59280Y-36441D02*
X59716Y-36877D01*
X55880Y-36441D02*
X59280Y-36441D01*
X55479Y-36842D02*
X55880Y-36441D01*
X55479Y-38870D02*
X55479Y-36842D01*
X55932Y-39323D02*
X55479Y-38870D01*
X55932Y-39900D02*
X55932Y-39323D01*
X58577Y-42934D02*
X58543Y-42900D01*
X58744Y-42934D02*
X58577Y-42934D01*
X57970Y-42900D02*
X58543Y-42900D01*
X56560Y-44274D02*
X56560Y-43680D01*
X56796Y-44510D02*
X56560Y-44274D01*
X58469Y-44510D02*
X56796Y-44510D01*
X59084Y-43894D02*
X58469Y-44510D01*
X60623Y-43894D02*
X59084Y-43894D01*
X60709Y-43979D02*
X60623Y-43894D01*
X61623Y-39855D02*
X61675Y-39855D01*
X61469Y-40008D02*
X61623Y-39855D01*
X61469Y-40225D02*
X61469Y-40008D01*
X61675Y-39400D02*
X61675Y-39855D01*
X61800Y-40225D02*
X61642Y-40225D01*
X61642Y-40225D02*
X61469Y-40225D01*
X60604Y-44875D02*
X60709Y-44979D01*
X60604Y-44775D02*
X60604Y-44875D01*
X61228Y-44150D02*
X60604Y-44775D01*
X61228Y-43755D02*
X61228Y-44150D01*
X61484Y-43499D02*
X61228Y-43755D01*
X61881Y-43499D02*
X61484Y-43499D01*
X62197Y-43184D02*
X61881Y-43499D01*
X62197Y-40779D02*
X62197Y-43184D01*
X61642Y-40225D02*
X62197Y-40779D01*
X60028Y-44200D02*
X59400Y-44200D01*
X60604Y-44775D02*
X60028Y-44200D01*
X52300Y-40900D02*
X52300Y-41432D01*
X56325Y-36900D02*
X55969Y-36900D01*
X55881Y-36988D02*
X55969Y-36900D01*
X55837Y-36988D02*
X55881Y-36988D01*
X52213Y-37062D02*
X51678Y-37062D01*
X51678Y-37152D02*
X51678Y-37062D01*
X51560Y-37270D02*
X51678Y-37152D01*
X50932Y-39200D02*
X50932Y-39498D01*
X50932Y-39498D02*
X51058Y-39623D01*
X59400Y-44800D02*
X59805Y-44800D01*
X59805Y-44800D02*
X59920Y-44915D01*
X61136Y-40605D02*
X61130Y-40600D01*
X61249Y-40605D02*
X61136Y-40605D01*
X60800Y-40600D02*
X61130Y-40600D01*
X54204Y-41317D02*
X53630Y-41317D01*
X53611Y-41299D02*
X53458Y-41299D01*
X53630Y-41317D02*
X53611Y-41299D01*
X57970Y-41630D02*
X58543Y-41630D01*
X59150Y-41630D02*
X58543Y-41630D01*
X59150Y-40900D02*
X59150Y-41630D01*
X59289Y-41769D02*
X59400Y-41769D01*
X59150Y-41630D02*
X59289Y-41769D01*
X59400Y-42125D02*
X59400Y-41769D01*
X54977Y-41947D02*
X54204Y-41947D01*
X55020Y-41904D02*
X54977Y-41947D01*
X51737Y-44862D02*
X51600Y-45000D01*
X51737Y-43832D02*
X51737Y-44862D01*
X52075Y-43832D02*
X51737Y-43832D01*
X56848Y-40473D02*
X56877Y-40473D01*
X56705Y-40616D02*
X56848Y-40473D01*
X56877Y-39900D02*
X56877Y-40473D01*
X57973Y-39326D02*
X57192Y-39326D01*
X58500Y-38800D02*
X57973Y-39326D01*
X57192Y-39900D02*
X57192Y-39326D01*
X56562Y-39137D02*
X56562Y-39900D01*
X56900Y-38800D02*
X56562Y-39137D01*
X54823Y-40473D02*
X55302Y-40473D01*
X54100Y-39750D02*
X54823Y-40473D01*
X54100Y-39700D02*
X54100Y-39750D01*
X55302Y-39900D02*
X55302Y-40473D01*
X55617Y-39445D02*
X55617Y-39900D01*
X55187Y-39015D02*
X55617Y-39445D01*
X55187Y-38481D02*
X55187Y-39015D01*
X54653Y-38481D02*
X55187Y-38481D01*
X56247Y-38947D02*
X56247Y-39900D01*
X56100Y-38800D02*
X56247Y-38947D01*
X53690Y-41002D02*
X54204Y-41002D01*
X53615Y-40928D02*
X53690Y-41002D01*
X53522Y-40928D02*
X53615Y-40928D01*
X53205Y-40610D02*
X53522Y-40928D01*
X53205Y-40449D02*
X53205Y-40610D01*
X52455Y-39700D02*
X53205Y-40449D01*
X52300Y-39700D02*
X52455Y-39700D01*
X53630Y-40130D02*
X53200Y-39700D01*
X53630Y-40687D02*
X53630Y-40130D01*
X54204Y-40687D02*
X53630Y-40687D01*
X58543Y-41984D02*
X58543Y-41950D01*
X59079Y-42519D02*
X58543Y-41984D01*
X59400Y-42519D02*
X59079Y-42519D01*
X59400Y-42875D02*
X59400Y-42519D01*
X57970Y-41950D02*
X58543Y-41950D01*
X51700Y-42967D02*
X51362Y-42967D01*
X50067Y-38432D02*
X50067Y-39200D01*
X50300Y-38200D02*
X50067Y-38432D01*
X50995Y-42600D02*
X51362Y-42967D01*
X50645Y-42600D02*
X50995Y-42600D01*
X49819Y-41774D02*
X50645Y-42600D01*
X49819Y-39745D02*
X49819Y-41774D01*
X50067Y-39498D02*
X49819Y-39745D01*
X50067Y-39200D02*
X50067Y-39498D01*
X52544Y-44200D02*
X52544Y-43875D01*
X52080Y-44664D02*
X52544Y-44200D01*
X52080Y-45202D02*
X52080Y-44664D01*
X51795Y-45487D02*
X52080Y-45202D01*
X51400Y-45487D02*
X51795Y-45487D01*
X51118Y-45204D02*
X51400Y-45487D01*
X51118Y-44416D02*
X51118Y-45204D01*
X51325Y-44210D02*
X51118Y-44416D01*
X51325Y-43832D02*
X51325Y-44210D01*
X53000Y-43875D02*
X52544Y-43875D01*
X53455Y-43068D02*
X53630Y-42892D01*
X53455Y-43125D02*
X53455Y-43068D01*
X54204Y-42892D02*
X53630Y-42892D01*
X53000Y-43125D02*
X53455Y-43125D01*
X52313Y-43356D02*
X52544Y-43125D01*
X51043Y-43356D02*
X52313Y-43356D01*
X50300Y-44100D02*
X51043Y-43356D01*
X53000Y-43125D02*
X52544Y-43125D01*
X53330Y-42277D02*
X53630Y-42577D01*
X53330Y-42100D02*
X53330Y-42277D01*
X52975Y-42100D02*
X53330Y-42100D01*
X54204Y-42577D02*
X53630Y-42577D01*
X56146Y-43106D02*
X56003Y-42963D01*
X56240Y-43106D02*
X56146Y-43106D01*
X56240Y-43680D02*
X56240Y-43106D01*
X57396Y-40502D02*
X57396Y-41000D01*
X58915Y-38983D02*
X57396Y-40502D01*
X58915Y-38641D02*
X58915Y-38983D01*
X58073Y-37800D02*
X58915Y-38641D01*
X57075Y-37800D02*
X58073Y-37800D01*
X57970Y-41000D02*
X57396Y-41000D01*
X57528Y-36900D02*
X57075Y-36900D01*
X59175Y-38546D02*
X57528Y-36900D01*
X59175Y-39484D02*
X59175Y-38546D01*
X57970Y-40690D02*
X59175Y-39484D01*
X56719Y-37760D02*
X56680Y-37800D01*
X56719Y-36900D02*
X56719Y-37760D01*
X56325Y-37800D02*
X56680Y-37800D01*
X57075Y-36900D02*
X56719Y-36900D01*
X54990Y-44690D02*
X54990Y-43680D01*
X55300Y-45000D02*
X54990Y-44690D01*
X55353Y-44253D02*
X55300Y-44253D01*
X56100Y-45000D02*
X55353Y-44253D01*
X55300Y-43680D02*
X55300Y-44253D01*
M02*
