G04 (created by PCBNEW (2011-nov-30)-testing) date Thu 18 Oct 2012 10:53:08 EDT*
%MOIN*%
G04 Gerber Fmt 3.4, Leading zero omitted, Abs format*
%FSLAX34Y34*%
G01*
G70*
G90*
G04 APERTURE LIST*
%ADD10C,3.93701e-06*%
%ADD11C,0.015*%
%ADD12C,0.012*%
G04 APERTURE END LIST*
G54D10*
G54D11*
X51944Y-39403D02*
X50724Y-39403D01*
X50724Y-39403D02*
X50724Y-42396D01*
X50724Y-42396D02*
X51944Y-42396D01*
X59535Y-40900D02*
G75*
G03X59535Y-40900I-3535J0D01*
G74*
G01*
X60301Y-40900D02*
G75*
G03X60301Y-40900I-4301J0D01*
G74*
G01*
G54D12*
X57500Y-42797D02*
X57414Y-42826D01*
X57385Y-42854D01*
X57357Y-42911D01*
X57357Y-42997D01*
X57385Y-43054D01*
X57414Y-43083D01*
X57471Y-43111D01*
X57700Y-43111D01*
X57700Y-42511D01*
X57500Y-42511D01*
X57442Y-42540D01*
X57414Y-42569D01*
X57385Y-42626D01*
X57385Y-42683D01*
X57414Y-42740D01*
X57442Y-42769D01*
X57500Y-42797D01*
X57700Y-42797D01*
X57128Y-42940D02*
X56842Y-42940D01*
X57185Y-43111D02*
X56985Y-42511D01*
X56785Y-43111D01*
X56671Y-42511D02*
X56328Y-42511D01*
X56500Y-43111D02*
X56500Y-42511D01*
X56214Y-42511D02*
X55871Y-42511D01*
X56042Y-43111D02*
X56042Y-42511D01*
X55671Y-42797D02*
X55471Y-42797D01*
X55385Y-43111D02*
X55671Y-43111D01*
X55671Y-42511D01*
X55385Y-42511D01*
X54785Y-43111D02*
X54985Y-42826D01*
X55128Y-43111D02*
X55128Y-42511D01*
X54899Y-42511D01*
X54842Y-42540D01*
X54814Y-42569D01*
X54785Y-42626D01*
X54785Y-42711D01*
X54814Y-42769D01*
X54842Y-42797D01*
X54899Y-42826D01*
X55128Y-42826D01*
X54414Y-42826D02*
X54414Y-43111D01*
X54614Y-42511D02*
X54414Y-42826D01*
X54214Y-42511D01*
M02*
