M48
INCH,TZ
T1C0.025
T2C0.032
T3C0.040
%
G90
G05
T1
X51059Y-39624
X51560Y-37271
X51748Y-42191
X52300Y-41433
X53459Y-41299
X54778Y-39204
X54905Y-42976
X55021Y-41905
X55837Y-36989
X56003Y-42963
X56706Y-40617
X58744Y-42934
X59921Y-44916
X61250Y-40606
T2
X52300Y-39700
X53200Y-39700
X54100Y-39700
X55300Y-45000
X56100Y-38800
X56100Y-45000
X56900Y-38800
X57700Y-38800
X58500Y-38800
T3
X50300Y-37200
X50300Y-38200
X50300Y-40400
X50300Y-41400
X50300Y-43100
X50300Y-44100
X51276Y-40900
X51600Y-45000
X52600Y-45000
X59150Y-40900
X59717Y-36878
X59717Y-37878
X60709Y-41980
X60709Y-42980
X60709Y-43980
X60709Y-44980
X60717Y-36878
X60717Y-37878
X61709Y-41980
X61709Y-42980
X61709Y-43980
X61709Y-44980
X61717Y-36878
X61717Y-37878
T0
M30
